# xmcd CD database file
#
# Track frame offsets:
#	150
#	8423
#	23369
#	36325
#	46926
#	55455
#	69526
#	86312
#	95907
#	109246
#	126245
#	136277
#	158794
#
# Disc length: 2526 seconds
#
# Revision: 0
# Processed by: cddbd v1.5.2PL0 Copyright (c) Steve Scherf et al.
# Submitted via: CDex 1.51
#
DISCID=a409dc0d
DTITLE=Miss Li - Miss Li
DYEAR=2007
DGENRE=Jazz
TTITLE0=Good Morning
TTITLE1=Oh Boy
TTITLE2=Backstabberlady
TTITLE3=Let Her Go
TTITLE4=All I Need Is You
TTITLE5=Im Glad iam Not A Proud American
TTITLE6=Dont Try To Fool Me
TTITLE7=Autumn Cold
TTITLE8=Im Sorry Hes Mine
TTITLE9=The Songs We Use To Sing
TTITLE10=Kings And Queens
TTITLE11=The Happy Sinner
TTITLE12=A Song About Me And A Boy
EXTD=YEAR: 2007
EXTT0=
EXTT1=
EXTT2=
EXTT3=
EXTT4=
EXTT5=
EXTT6=
EXTT7=
EXTT8=
EXTT9=
EXTT10=
EXTT11=
EXTT12=
PLAYORDER=
